<svg id="ep6nByMrF3v1" xmlns="http://www.w3.org/2000/svg" xmlns:xlink="http://www.w3.org/1999/xlink" viewBox="0 0 1920 623" shape-rendering="geometricPrecision" text-rendering="geometricPrecision" project-id="679822cd5a824ffdb124ddf00ab176d3" export-id="5809b8ceec1b45cf937b1a994b57c3fd" cached="false"><rect width="113.793103" height="846.206896" rx="0" ry="0" transform="matrix(1.293671-1.105874 0.869021 1.016596 712.349291-40.290648)" fill="#ffd096" stroke-width="0"/><rect width="113.793103" height="846.206896" rx="0" ry="0" transform="matrix(1.023918-.875281 0.48572 0.568204 1183.911967-18.769743)" fill="#322d33" stroke-width="0"/><path d="M913.204463,335.231484c64.805309,21.345038,139.099942-2.528583,116.514837-99.600902L913.204463,335.231484Z" transform="translate(681.727474 125.669869)" fill="#322d33" stroke="rgba(63,87,135,0)" stroke-width="3.84"/><path d="M913.204463,335.231484c64.805309,21.345038,139.099942-2.528583,116.514837-99.600902L913.204463,335.231484Z" transform="translate(-206.737533 24.751417)" fill="#322d33" stroke="rgba(63,87,135,0)" stroke-width="3.84"/><ellipse rx="79.380163" ry="71.451479" transform="matrix(2.355271 0 0 2.61 102.624593 557.431116)" fill="#322d33" stroke-width="0"/><ellipse rx="79.380163" ry="71.451479" transform="matrix(2.639385 0 0 3.136428 144.189566 87.397581)" fill="rgba(76,43,41,0.42)" stroke-width="0"/><ellipse rx="79.380163" ry="71.451479" transform="matrix(2.639385 0 0 3.136428 144.189566 89.691783)" fill="#897371" stroke-width="0"/><ellipse rx="79.380163" ry="71.451479" transform="matrix(2.639385 0 0 3.136428 1888.408866 660.103938)" fill="#b4a6a5" stroke-width="0"/><ellipse rx="79.380163" ry="71.451479" transform="matrix(2.84561 0 0 3.208942 693.239419 341.770659)" fill="#ffefda" stroke-width="0"/><rect width="113.793103" height="846.206896" rx="0" ry="0" transform="matrix(1.023918-.875281 0.869021 1.016596-78.099533-66.530622)" fill="#ffd096" stroke-width="0"/><ellipse rx="79.380163" ry="71.451479" transform="matrix(1.162958 0 0 1.26462 919.124406 505.071624)" fill="#322d33" stroke-width="0"/><ellipse rx="79.380163" ry="71.451479" transform="matrix(2.062898 0 0 2.347668 1711.446775 31.039511)" fill="#b59491" stroke-width="0"/><rect width="113.793103" height="846.206896" rx="0" ry="0" transform="matrix(1.023918-.875281 0.869021 1.016596 1389.421952-289.196237)" fill="#ffd096" stroke-width="0"/><rect width="113.793103" height="846.206896" rx="0" ry="0" transform="matrix(1.023918-.875281 0.48572 0.568204 295.44696-118.370645)" fill="#322d33" stroke-width="0"/></svg>
